<!DOCTYPE svg PUBLIC "-//W3C//DTD SVG 1.1//EN" "http://www.w3.org/Graphics/SVG/1.1/DTD/svg11.dtd">
<svg xmlns="http://www.w3.org/2000/svg" xmlns:xlink="http://www.w3.org/1999/xlink" xmlns:jfreesvg="http://www.jfree.org/jfreesvg/svg" width="2454" height="713" text-rendering="auto" shape-rendering="auto">
<defs></defs>
<line x1="1042" y1="83" x2="280" y2="149" style="stroke-width: 4.0;stroke: rgb(0,0,0);stroke-opacity: 1.0;stroke-linecap: square;" /><line x1="1042" y1="83" x2="825" y2="149" style="stroke-width: 4.0;stroke: rgb(0,0,0);stroke-opacity: 1.0;stroke-linecap: square;" /><line x1="1042" y1="83" x2="1805" y2="149" style="stroke-width: 4.0;stroke: rgb(0,0,0);stroke-opacity: 1.0;stroke-linecap: square;" /><g style="fill: rgb(255,255,255); fill-opacity: 1.0; stroke: none" ><path d="M 280 240 L 234 266 L 326 266 Z "/></g><g style="fill: rgb(255,255,255); fill-opacity: 1.0; stroke: none" ><path d="M 236.7 265 C 245.63 280.47 262.14 290 280 290 C 297.86 290 314.37 280.47 323.3 265"/></g><g style="stroke-width: 4.0;stroke: rgb(0,0,0);stroke-opacity: 1.0;stroke-linecap: square;; fill: none" ><path d="M 236.7 265 C 245.63 280.47 262.14 290 280 290 C 297.86 290 314.37 280.47 323.3 265"/></g><line x1="280" y1="240" x2="143" y2="318" style="stroke-width: 4.0;stroke: rgb(0,0,0);stroke-opacity: 1.0;stroke-linecap: square;" /><line x1="280" y1="240" x2="417" y2="318" style="stroke-width: 4.0;stroke: rgb(0,0,0);stroke-opacity: 1.0;stroke-linecap: square;" /><line x1="825" y1="240" x2="674" y2="306" style="stroke-width: 4.0;stroke: rgb(0,0,0);stroke-opacity: 1.0;stroke-linecap: square;" /><line x1="825" y1="240" x2="977" y2="306" style="stroke-width: 4.0;stroke: rgb(0,0,0);stroke-opacity: 1.0;stroke-linecap: square;" /><g style="fill: rgb(255,255,255); fill-opacity: 1.0; stroke: none" ><path d="M 977 397 L 932 425 L 1022 425 Z "/></g><g style="fill: rgb(255,255,255); fill-opacity: 1.0; stroke: none" ><path d="M 934.6 423.5 C 943.73 438.12 959.76 447 977 447 C 994.24 447 1010.27 438.12 1019.4 423.5"/></g><g style="stroke-width: 4.0;stroke: rgb(0,0,0);stroke-opacity: 1.0;stroke-linecap: square;; fill: none" ><path d="M 934.6 423.5 C 943.73 438.12 959.76 447 977 447 C 994.24 447 1010.27 438.12 1019.4 423.5"/></g><line x1="977" y1="397" x2="851" y2="475" style="stroke-width: 4.0;stroke: rgb(0,0,0);stroke-opacity: 1.0;stroke-linecap: square;" /><line x1="977" y1="397" x2="1104" y2="475" style="stroke-width: 4.0;stroke: rgb(0,0,0);stroke-opacity: 1.0;stroke-linecap: square;" /><g style="fill: rgb(0,0,0); fill-opacity: 1.0; stroke: none" ><path d="M 851 554 L 806 581 L 896 581 Z "/></g><g style="fill: rgb(0,0,0); fill-opacity: 1.0; stroke: none" ><path d="M 808.14 579.75 C 817.18 594.8 833.45 604 851 604 C 868.55 604 884.82 594.8 893.86 579.75"/></g><g style="stroke-width: 4.0;stroke: rgb(0,0,0);stroke-opacity: 1.0;stroke-linecap: square;; fill: none" ><path d="M 808.14 579.75 C 817.18 594.8 833.45 604 851 604 C 868.55 604 884.82 594.8 893.86 579.75"/></g><line x1="851" y1="554" x2="718" y2="632" style="stroke-width: 4.0;stroke: rgb(0,0,0);stroke-opacity: 1.0;stroke-linecap: square;" /><line x1="851" y1="554" x2="982" y2="632" style="stroke-width: 4.0;stroke: rgb(0,0,0);stroke-opacity: 1.0;stroke-linecap: square;" /><g style="fill: rgb(255,255,255); fill-opacity: 1.0; stroke: none" ><path d="M 1805 240 L 1753 250 L 1805 292 Z "/></g><g style="fill: rgb(255,255,255); fill-opacity: 1.0; stroke: none" ><path d="M 1755.92 249.54 C 1760.49 273.04 1781.06 290 1805 290"/></g><g style="stroke-width: 4.0;stroke: rgb(0,0,0);stroke-opacity: 1.0;stroke-linecap: square;; fill: none" ><path d="M 1755.92 249.54 C 1760.49 273.04 1781.06 290 1805 290"/></g><line x1="1805" y1="240" x2="1366" y2="318" style="stroke-width: 4.0;stroke: rgb(0,0,0);stroke-opacity: 1.0;stroke-linecap: square;" /><line x1="1805" y1="240" x2="1805" y2="318" style="stroke-width: 4.0;stroke: rgb(0,0,0);stroke-opacity: 1.0;stroke-linecap: square;" /><line x1="1805" y1="240" x2="2244" y2="306" style="stroke-width: 4.0;stroke: rgb(0,0,0);stroke-opacity: 1.0;stroke-linecap: square;" /><g style="fill: rgb(255,255,255); fill-opacity: 1.0; stroke: none" ><path d="M 849 29 L 849 56 C 849 69.81 860.19 81 874 81 L 1210 81 C 1223.81 81 1235 69.81 1235 56 L 1235 29 C 1235 15.19 1223.81 4 1210 4 L 874 4 C 860.19 4 849 15.19 849 29 Z "/></g><g style="stroke-width: 4.0;stroke: rgb(0,0,0);stroke-opacity: 1.0;stroke-linecap: square;; fill: none" ><path d="M 849 29 L 849 56 C 849 69.81 860.19 81 874 81 L 1210 81 C 1223.81 81 1235 69.81 1235 56 L 1235 29 C 1235 15.19 1223.81 4 1210 4 L 874 4 C 860.19 4 849 15.19 849 29 Z "/></g><g ><text x="869" y="57" style="fill: rgb(0,0,0); fill-opacity: 1.0; font-family: sans-serif; font-size: 48px;" >CoffeeMachine</text></g><ellipse cx="280" cy="149" rx="12" ry="12" style="fill: rgb(255,255,255); fill-opacity: 1.0" /><ellipse cx="280" cy="149" rx="12" ry="12" style="stroke-width: 4.0;stroke: rgb(0,0,0);stroke-opacity: 1.0;stroke-linecap: square;; fill: none" /><g style="fill: rgb(255,255,255); fill-opacity: 1.0; stroke: none" ><path d="M 172 186 L 172 213 C 172 226.81 183.19 238 197 238 L 363 238 C 376.81 238 388 226.81 388 213 L 388 186 C 388 172.19 376.81 161 363 161 L 197 161 C 183.19 161 172 172.19 172 186 Z "/></g><g style="stroke-width: 4.0;stroke: rgb(0,0,0);stroke-opacity: 1.0;stroke-linecap: square;; fill: none" ><path d="M 172 186 L 172 213 C 172 226.81 183.19 238 197 238 L 363 238 C 376.81 238 388 226.81 388 213 L 388 186 C 388 172.19 376.81 161 363 161 L 197 161 C 183.19 161 172 172.19 172 186 Z "/></g><g ><text x="192" y="214" style="fill: rgb(0,0,0); fill-opacity: 1.0; font-family: sans-serif; font-size: 48px;" >Grinder</text></g><g style="fill: rgb(255,255,255); fill-opacity: 1.0; stroke: none" ><path d="M 4 343 L 4 370 C 4 383.81 15.19 395 29 395 L 258 395 C 271.81 395 283 383.81 283 370 L 283 343 C 283 329.19 271.81 318 258 318 L 29 318 C 15.19 318 4 329.19 4 343 Z "/></g><g style="stroke-width: 4.0;stroke: rgb(0,0,0);stroke-opacity: 1.0;stroke-linecap: square;; fill: none" ><path d="M 4 343 L 4 370 C 4 383.81 15.19 395 29 395 L 258 395 C 271.81 395 283 383.81 283 370 L 283 343 C 283 329.19 271.81 318 258 318 L 29 318 C 15.19 318 4 329.19 4 343 Z "/></g><g ><text x="23" y="371" style="fill: rgb(0,0,0); fill-opacity: 1.0; font-family: sans-serif; font-size: 48px;" >Automatic</text></g><g style="fill: rgb(255,255,255); fill-opacity: 1.0; stroke: none" ><path d="M 313 343 L 313 370 C 313 383.81 324.19 395 338 395 L 497 395 C 510.81 395 522 383.81 522 370 L 522 343 C 522 329.19 510.81 318 497 318 L 338 318 C 324.19 318 313 329.19 313 343 Z "/></g><g style="stroke-width: 4.0;stroke: rgb(0,0,0);stroke-opacity: 1.0;stroke-linecap: square;; fill: none" ><path d="M 313 343 L 313 370 C 313 383.81 324.19 395 338 395 L 497 395 C 510.81 395 522 383.81 522 370 L 522 343 C 522 329.19 510.81 318 497 318 L 338 318 C 324.19 318 313 329.19 313 343 Z "/></g><g ><text x="332" y="371" style="fill: rgb(0,0,0); fill-opacity: 1.0; font-family: sans-serif; font-size: 48px;" >Manual</text></g><ellipse cx="825" cy="149" rx="12" ry="12" style="fill: rgb(0,0,0); fill-opacity: 1.0" /><ellipse cx="825" cy="149" rx="12" ry="12" style="stroke-width: 4.0;stroke: rgb(0,0,0);stroke-opacity: 1.0;stroke-linecap: square;; fill: none" /><g style="fill: rgb(255,255,255); fill-opacity: 1.0; stroke: none" ><path d="M 688 186 L 688 213 C 688 226.81 699.19 238 713 238 L 938 238 C 951.81 238 963 226.81 963 213 L 963 186 C 963 172.19 951.81 161 938 161 L 713 161 C 699.19 161 688 172.19 688 186 Z "/></g><g style="stroke-width: 4.0;stroke: rgb(0,0,0);stroke-opacity: 1.0;stroke-linecap: square;; fill: none" ><path d="M 688 186 L 688 213 C 688 226.81 699.19 238 713 238 L 938 238 C 951.81 238 963 226.81 963 213 L 963 186 C 963 172.19 951.81 161 938 161 L 713 161 C 699.19 161 688 172.19 688 186 Z "/></g><g ><text x="707" y="214" style="fill: rgb(0,0,0); fill-opacity: 1.0; font-family: sans-serif; font-size: 48px;" >Beverages</text></g><ellipse cx="674" cy="306" rx="12" ry="12" style="fill: rgb(0,0,0); fill-opacity: 1.0" /><ellipse cx="674" cy="306" rx="12" ry="12" style="stroke-width: 4.0;stroke: rgb(0,0,0);stroke-opacity: 1.0;stroke-linecap: square;; fill: none" /><g style="fill: rgb(255,255,255); fill-opacity: 1.0; stroke: none" ><path d="M 552 343 L 552 370 C 552 383.81 563.19 395 577 395 L 771 395 C 784.81 395 796 383.81 796 370 L 796 343 C 796 329.19 784.81 318 771 318 L 577 318 C 563.19 318 552 329.19 552 343 Z "/></g><g style="stroke-width: 4.0;stroke: rgb(0,0,0);stroke-opacity: 1.0;stroke-linecap: square;; fill: none" ><path d="M 552 343 L 552 370 C 552 383.81 563.19 395 577 395 L 771 395 C 784.81 395 796 383.81 796 370 L 796 343 C 796 329.19 784.81 318 771 318 L 577 318 C 563.19 318 552 329.19 552 343 Z "/></g><g ><text x="572" y="371" style="fill: rgb(0,0,0); fill-opacity: 1.0; font-family: sans-serif; font-size: 48px;" >Espresso</text></g><ellipse cx="977" cy="306" rx="12" ry="12" style="fill: rgb(255,255,255); fill-opacity: 1.0" /><ellipse cx="977" cy="306" rx="12" ry="12" style="stroke-width: 4.0;stroke: rgb(0,0,0);stroke-opacity: 1.0;stroke-linecap: square;; fill: none" /><g style="fill: rgb(255,255,255); fill-opacity: 1.0; stroke: none" ><path d="M 826 343 L 826 370 C 826 383.81 837.19 395 851 395 L 1104 395 C 1117.81 395 1129 383.81 1129 370 L 1129 343 C 1129 329.19 1117.81 318 1104 318 L 851 318 C 837.19 318 826 329.19 826 343 Z "/></g><g style="stroke-width: 4.0;stroke: rgb(0,0,0);stroke-opacity: 1.0;stroke-linecap: square;; fill: none" ><path d="M 826 343 L 826 370 C 826 383.81 837.19 395 851 395 L 1104 395 C 1117.81 395 1129 383.81 1129 370 L 1129 343 C 1129 329.19 1117.81 318 1104 318 L 851 318 C 837.19 318 826 329.19 826 343 Z "/></g><g ><text x="845" y="371" style="fill: rgb(0,0,0); fill-opacity: 1.0; font-family: sans-serif; font-size: 48px;" >Milk-based</text></g><g style="fill: rgb(255,255,255); fill-opacity: 1.0; stroke: none" ><path d="M 743 500 L 743 527 C 743 540.81 754.19 552 768 552 L 934 552 C 947.81 552 959 540.81 959 527 L 959 500 C 959 486.19 947.81 475 934 475 L 768 475 C 754.19 475 743 486.19 743 500 Z "/></g><g style="stroke-width: 4.0;stroke: rgb(0,0,0);stroke-opacity: 1.0;stroke-linecap: square;; fill: none" ><path d="M 743 500 L 743 527 C 743 540.81 754.19 552 768 552 L 934 552 C 947.81 552 959 540.81 959 527 L 959 500 C 959 486.19 947.81 475 934 475 L 768 475 C 754.19 475 743 486.19 743 500 Z "/></g><g ><text x="763" y="528" style="fill: rgb(0,0,0); fill-opacity: 1.0; font-family: sans-serif; font-size: 48px;" >Built-in</text></g><g style="fill: rgb(255,255,255); fill-opacity: 1.0; stroke: none" ><path d="M 640 657 L 640 684 C 640 697.81 651.19 709 665 709 L 771 709 C 784.81 709 796 697.81 796 684 L 796 657 C 796 643.19 784.81 632 771 632 L 665 632 C 651.19 632 640 643.19 640 657 Z "/></g><g style="stroke-width: 4.0;stroke: rgb(0,0,0);stroke-opacity: 1.0;stroke-linecap: square;; fill: none" ><path d="M 640 657 L 640 684 C 640 697.81 651.19 709 665 709 L 771 709 C 784.81 709 796 697.81 796 684 L 796 657 C 796 643.19 784.81 632 771 632 L 665 632 C 651.19 632 640 643.19 640 657 Z "/></g><g ><text x="660" y="685" style="fill: rgb(0,0,0); fill-opacity: 1.0; font-family: sans-serif; font-size: 48px;" >Latte</text></g><g style="fill: rgb(255,255,255); fill-opacity: 1.0; stroke: none" ><path d="M 826 657 L 826 684 C 826 697.81 837.19 709 851 709 L 1114 709 C 1127.81 709 1139 697.81 1139 684 L 1139 657 C 1139 643.19 1127.81 632 1114 632 L 851 632 C 837.19 632 826 643.19 826 657 Z "/></g><g style="stroke-width: 4.0;stroke: rgb(0,0,0);stroke-opacity: 1.0;stroke-linecap: square;; fill: none" ><path d="M 826 657 L 826 684 C 826 697.81 837.19 709 851 709 L 1114 709 C 1127.81 709 1139 697.81 1139 684 L 1139 657 C 1139 643.19 1127.81 632 1114 632 L 851 632 C 837.19 632 826 643.19 826 657 Z "/></g><g ><text x="845" y="685" style="fill: rgb(0,0,0); fill-opacity: 1.0; font-family: sans-serif; font-size: 48px;" >Cappuccino</text></g><g style="fill: rgb(255,255,255); fill-opacity: 1.0; stroke: none" ><path d="M 989 500 L 989 527 C 989 540.81 1000.19 552 1014 552 L 1194 552 C 1207.81 552 1219 540.81 1219 527 L 1219 500 C 1219 486.19 1207.81 475 1194 475 L 1014 475 C 1000.19 475 989 486.19 989 500 Z "/></g><g style="stroke-width: 4.0;stroke: rgb(0,0,0);stroke-opacity: 1.0;stroke-linecap: square;; fill: none" ><path d="M 989 500 L 989 527 C 989 540.81 1000.19 552 1014 552 L 1194 552 C 1207.81 552 1219 540.81 1219 527 L 1219 500 C 1219 486.19 1207.81 475 1194 475 L 1014 475 C 1000.19 475 989 486.19 989 500 Z "/></g><g ><text x="1009" y="528" style="fill: rgb(0,0,0); fill-opacity: 1.0; font-family: sans-serif; font-size: 48px;" >Steamer</text></g><ellipse cx="1805" cy="149" rx="12" ry="12" style="fill: rgb(0,0,0); fill-opacity: 1.0" /><ellipse cx="1805" cy="149" rx="12" ry="12" style="stroke-width: 4.0;stroke: rgb(0,0,0);stroke-opacity: 1.0;stroke-linecap: square;; fill: none" /><g style="fill: rgb(255,255,255); fill-opacity: 1.0; stroke: none" ><path d="M 1682 186 L 1682 213 C 1682 226.81 1693.19 238 1707 238 L 1903 238 C 1916.81 238 1928 226.81 1928 213 L 1928 186 C 1928 172.19 1916.81 161 1903 161 L 1707 161 C 1693.19 161 1682 172.19 1682 186 Z "/></g><g style="stroke-width: 4.0;stroke: rgb(0,0,0);stroke-opacity: 1.0;stroke-linecap: square;; fill: none" ><path d="M 1682 186 L 1682 213 C 1682 226.81 1693.19 238 1707 238 L 1903 238 C 1916.81 238 1928 226.81 1928 213 L 1928 186 C 1928 172.19 1916.81 161 1903 161 L 1707 161 C 1693.19 161 1682 172.19 1682 186 Z "/></g><g ><text x="1702" y="214" style="fill: rgb(0,0,0); fill-opacity: 1.0; font-family: sans-serif; font-size: 48px;" >Interface</text></g><g style="fill: rgb(255,255,255); fill-opacity: 1.0; stroke: none" ><path d="M 1159 343 L 1159 370 C 1159 383.81 1170.19 395 1184 395 L 1548 395 C 1561.81 395 1573 383.81 1573 370 L 1573 343 C 1573 329.19 1561.81 318 1548 318 L 1184 318 C 1170.19 318 1159 329.19 1159 343 Z "/></g><g style="stroke-width: 4.0;stroke: rgb(0,0,0);stroke-opacity: 1.0;stroke-linecap: square;; fill: none" ><path d="M 1159 343 L 1159 370 C 1159 383.81 1170.19 395 1184 395 L 1548 395 C 1561.81 395 1573 383.81 1573 370 L 1573 343 C 1573 329.19 1561.81 318 1548 318 L 1184 318 C 1170.19 318 1159 329.19 1159 343 Z "/></g><g ><text x="1179" y="371" style="fill: rgb(0,0,0); fill-opacity: 1.0; font-family: sans-serif; font-size: 48px;" >Button interface</text></g><g style="fill: rgb(255,255,255); fill-opacity: 1.0; stroke: none" ><path d="M 1603 343 L 1603 370 C 1603 383.81 1614.19 395 1628 395 L 1983 395 C 1996.81 395 2008 383.81 2008 370 L 2008 343 C 2008 329.19 1996.81 318 1983 318 L 1628 318 C 1614.19 318 1603 329.19 1603 343 Z "/></g><g style="stroke-width: 4.0;stroke: rgb(0,0,0);stroke-opacity: 1.0;stroke-linecap: square;; fill: none" ><path d="M 1603 343 L 1603 370 C 1603 383.81 1614.19 395 1628 395 L 1983 395 C 1996.81 395 2008 383.81 2008 370 L 2008 343 C 2008 329.19 1996.81 318 1983 318 L 1628 318 C 1614.19 318 1603 329.19 1603 343 Z "/></g><g ><text x="1622" y="371" style="fill: rgb(0,0,0); fill-opacity: 1.0; font-family: sans-serif; font-size: 48px;" >Touch interface</text></g><ellipse cx="2244" cy="306" rx="12" ry="12" style="fill: rgb(255,255,255); fill-opacity: 1.0" /><ellipse cx="2244" cy="306" rx="12" ry="12" style="stroke-width: 4.0;stroke: rgb(0,0,0);stroke-opacity: 1.0;stroke-linecap: square;; fill: none" /><g style="fill: rgb(255,255,255); fill-opacity: 1.0; stroke: none" ><path d="M 2038 343 L 2038 370 C 2038 383.81 2049.19 395 2063 395 L 2425 395 C 2438.81 395 2450 383.81 2450 370 L 2450 343 C 2450 329.19 2438.81 318 2425 318 L 2063 318 C 2049.19 318 2038 329.19 2038 343 Z "/></g><g style="stroke-width: 4.0;stroke: rgb(0,0,0);stroke-opacity: 1.0;stroke-linecap: square;; fill: none" ><path d="M 2038 343 L 2038 370 C 2038 383.81 2049.19 395 2063 395 L 2425 395 C 2438.81 395 2450 383.81 2450 370 L 2450 343 C 2450 329.19 2438.81 318 2425 318 L 2063 318 C 2049.19 318 2038 329.19 2038 343 Z "/></g><g ><text x="2058" y="371" style="fill: rgb(0,0,0); fill-opacity: 1.0; font-family: sans-serif; font-size: 48px;" >Voice command</text></g></svg>
