<!DOCTYPE svg PUBLIC "-//W3C//DTD SVG 1.1//EN" "http://www.w3.org/Graphics/SVG/1.1/DTD/svg11.dtd">
<svg xmlns="http://www.w3.org/2000/svg" xmlns:xlink="http://www.w3.org/1999/xlink" xmlns:jfreesvg="http://www.jfree.org/jfreesvg/svg" width="1510" height="556" text-rendering="auto" shape-rendering="auto">
<defs></defs>
<line x1="696" y1="83" x2="161" y2="149" style="stroke-width: 4.0;stroke: rgb(0,0,0);stroke-opacity: 1.0;stroke-linecap: square;" /><line x1="696" y1="83" x2="421" y2="149" style="stroke-width: 4.0;stroke: rgb(0,0,0);stroke-opacity: 1.0;stroke-linecap: square;" /><line x1="696" y1="83" x2="1231" y2="149" style="stroke-width: 4.0;stroke: rgb(0,0,0);stroke-opacity: 1.0;stroke-linecap: square;" /><g style="fill: rgb(255,255,255); fill-opacity: 1.0; stroke: none" ><path d="M 421 240 L 371 258 L 471 258 Z "/></g><g style="fill: rgb(255,255,255); fill-opacity: 1.0; stroke: none" ><path d="M 374.02 257.1 C 381.2 276.85 399.98 290 421 290 C 442.02 290 460.8 276.85 467.98 257.1"/></g><g style="stroke-width: 4.0;stroke: rgb(0,0,0);stroke-opacity: 1.0;stroke-linecap: square;; fill: none" ><path d="M 374.02 257.1 C 381.2 276.85 399.98 290 421 290 C 442.02 290 460.8 276.85 467.98 257.1"/></g><line x1="421" y1="240" x2="196" y2="318" style="stroke-width: 4.0;stroke: rgb(0,0,0);stroke-opacity: 1.0;stroke-linecap: square;" /><line x1="421" y1="240" x2="646" y2="318" style="stroke-width: 4.0;stroke: rgb(0,0,0);stroke-opacity: 1.0;stroke-linecap: square;" /><g style="fill: rgb(255,255,255); fill-opacity: 1.0; stroke: none" ><path d="M 1231 240 L 1184 264 L 1278 264 Z "/></g><g style="fill: rgb(255,255,255); fill-opacity: 1.0; stroke: none" ><path d="M 1186.45 262.7 C 1194.99 279.45 1212.2 290 1231 290 C 1249.8 290 1267.01 279.45 1275.55 262.7"/></g><g style="stroke-width: 4.0;stroke: rgb(0,0,0);stroke-opacity: 1.0;stroke-linecap: square;; fill: none" ><path d="M 1186.45 262.7 C 1194.99 279.45 1212.2 290 1231 290 C 1249.8 290 1267.01 279.45 1275.55 262.7"/></g><line x1="1231" y1="240" x2="1074" y2="318" style="stroke-width: 4.0;stroke: rgb(0,0,0);stroke-opacity: 1.0;stroke-linecap: square;" /><line x1="1231" y1="240" x2="1389" y2="318" style="stroke-width: 4.0;stroke: rgb(0,0,0);stroke-opacity: 1.0;stroke-linecap: square;" /><g style="fill: rgb(0,0,0); fill-opacity: 1.0; stroke: none" ><path d="M 1074 397 L 1023 411 L 1125 411 Z "/></g><g style="fill: rgb(0,0,0); fill-opacity: 1.0; stroke: none" ><path d="M 1025.7 409.94 C 1031.56 431.8 1051.37 447 1074 447 C 1096.63 447 1116.44 431.8 1122.3 409.94"/></g><g style="stroke-width: 4.0;stroke: rgb(0,0,0);stroke-opacity: 1.0;stroke-linecap: square;; fill: none" ><path d="M 1025.7 409.94 C 1031.56 431.8 1051.37 447 1074 447 C 1096.63 447 1116.44 431.8 1122.3 409.94"/></g><line x1="1074" y1="397" x2="779" y2="475" style="stroke-width: 4.0;stroke: rgb(0,0,0);stroke-opacity: 1.0;stroke-linecap: square;" /><line x1="1074" y1="397" x2="1043" y2="475" style="stroke-width: 4.0;stroke: rgb(0,0,0);stroke-opacity: 1.0;stroke-linecap: square;" /><line x1="1074" y1="397" x2="1368" y2="475" style="stroke-width: 4.0;stroke: rgb(0,0,0);stroke-opacity: 1.0;stroke-linecap: square;" /><g style="fill: rgb(255,255,255); fill-opacity: 1.0; stroke: none" ><path d="M 503 29 L 503 56 C 503 69.81 514.19 81 528 81 L 864 81 C 877.81 81 889 69.81 889 56 L 889 29 C 889 15.19 877.81 4 864 4 L 528 4 C 514.19 4 503 15.19 503 29 Z "/></g><g style="stroke-width: 4.0;stroke: rgb(0,0,0);stroke-opacity: 1.0;stroke-linecap: square;; fill: none" ><path d="M 503 29 L 503 56 C 503 69.81 514.19 81 528 81 L 864 81 C 877.81 81 889 69.81 889 56 L 889 29 C 889 15.19 877.81 4 864 4 L 528 4 C 514.19 4 503 15.19 503 29 Z "/></g><g ><text x="523" y="57" style="fill: rgb(0,0,0); fill-opacity: 1.0; font-family: sans-serif; font-size: 48px;" >CoffeeMachine</text></g><ellipse cx="161" cy="149" rx="12" ry="12" style="fill: rgb(0,0,0); fill-opacity: 1.0" /><ellipse cx="161" cy="149" rx="12" ry="12" style="stroke-width: 4.0;stroke: rgb(0,0,0);stroke-opacity: 1.0;stroke-linecap: square;; fill: none" /><g style="fill: rgb(255,255,255); fill-opacity: 1.0; stroke: none" ><path d="M 39 186 L 39 213 C 39 226.81 50.19 238 64 238 L 258 238 C 271.81 238 283 226.81 283 213 L 283 186 C 283 172.19 271.81 161 258 161 L 64 161 C 50.19 161 39 172.19 39 186 Z "/></g><g style="stroke-width: 4.0;stroke: rgb(0,0,0);stroke-opacity: 1.0;stroke-linecap: square;; fill: none" ><path d="M 39 186 L 39 213 C 39 226.81 50.19 238 64 238 L 258 238 C 271.81 238 283 226.81 283 213 L 283 186 C 283 172.19 271.81 161 258 161 L 64 161 C 50.19 161 39 172.19 39 186 Z "/></g><g ><text x="59" y="214" style="fill: rgb(0,0,0); fill-opacity: 1.0; font-family: sans-serif; font-size: 48px;" >Espresso</text></g><ellipse cx="421" cy="149" rx="12" ry="12" style="fill: rgb(255,255,255); fill-opacity: 1.0" /><ellipse cx="421" cy="149" rx="12" ry="12" style="stroke-width: 4.0;stroke: rgb(0,0,0);stroke-opacity: 1.0;stroke-linecap: square;; fill: none" /><g style="fill: rgb(255,255,255); fill-opacity: 1.0; stroke: none" ><path d="M 313 186 L 313 213 C 313 226.81 324.19 238 338 238 L 504 238 C 517.81 238 529 226.81 529 213 L 529 186 C 529 172.19 517.81 161 504 161 L 338 161 C 324.19 161 313 172.19 313 186 Z "/></g><g style="stroke-width: 4.0;stroke: rgb(0,0,0);stroke-opacity: 1.0;stroke-linecap: square;; fill: none" ><path d="M 313 186 L 313 213 C 313 226.81 324.19 238 338 238 L 504 238 C 517.81 238 529 226.81 529 213 L 529 186 C 529 172.19 517.81 161 504 161 L 338 161 C 324.19 161 313 172.19 313 186 Z "/></g><g ><text x="333" y="214" style="fill: rgb(0,0,0); fill-opacity: 1.0; font-family: sans-serif; font-size: 48px;" >Grinder</text></g><g style="fill: rgb(255,255,255); fill-opacity: 1.0; stroke: none" ><path d="M 4 343 L 4 370 C 4 383.81 15.19 395 29 395 L 364 395 C 377.81 395 389 383.81 389 370 L 389 343 C 389 329.19 377.81 318 364 318 L 29 318 C 15.19 318 4 329.19 4 343 Z "/></g><g style="stroke-width: 4.0;stroke: rgb(0,0,0);stroke-opacity: 1.0;stroke-linecap: square;; fill: none" ><path d="M 4 343 L 4 370 C 4 383.81 15.19 395 29 395 L 364 395 C 377.81 395 389 383.81 389 370 L 389 343 C 389 329.19 377.81 318 364 318 L 29 318 C 15.19 318 4 329.19 4 343 Z "/></g><g ><text x="23" y="371" style="fill: rgb(0,0,0); fill-opacity: 1.0; font-family: sans-serif; font-size: 48px;" >ManualGrinder</text></g><g style="fill: rgb(255,255,255); fill-opacity: 1.0; stroke: none" ><path d="M 419 343 L 419 370 C 419 383.81 430.19 395 444 395 L 849 395 C 862.81 395 874 383.81 874 370 L 874 343 C 874 329.19 862.81 318 849 318 L 444 318 C 430.19 318 419 329.19 419 343 Z "/></g><g style="stroke-width: 4.0;stroke: rgb(0,0,0);stroke-opacity: 1.0;stroke-linecap: square;; fill: none" ><path d="M 419 343 L 419 370 C 419 383.81 430.19 395 444 395 L 849 395 C 862.81 395 874 383.81 874 370 L 874 343 C 874 329.19 862.81 318 849 318 L 444 318 C 430.19 318 419 329.19 419 343 Z "/></g><g ><text x="438" y="371" style="fill: rgb(0,0,0); fill-opacity: 1.0; font-family: sans-serif; font-size: 48px;" >AutomaticGrinder</text></g><ellipse cx="1231" cy="149" rx="12" ry="12" style="fill: rgb(255,255,255); fill-opacity: 1.0" /><ellipse cx="1231" cy="149" rx="12" ry="12" style="stroke-width: 4.0;stroke: rgb(0,0,0);stroke-opacity: 1.0;stroke-linecap: square;; fill: none" /><g style="fill: rgb(255,255,255); fill-opacity: 1.0; stroke: none" ><path d="M 1095 186 L 1095 213 C 1095 226.81 1106.19 238 1120 238 L 1343 238 C 1356.81 238 1368 226.81 1368 213 L 1368 186 C 1368 172.19 1356.81 161 1343 161 L 1120 161 C 1106.19 161 1095 172.19 1095 186 Z "/></g><g style="stroke-width: 4.0;stroke: rgb(0,0,0);stroke-opacity: 1.0;stroke-linecap: square;; fill: none" ><path d="M 1095 186 L 1095 213 C 1095 226.81 1106.19 238 1120 238 L 1343 238 C 1356.81 238 1368 226.81 1368 213 L 1368 186 C 1368 172.19 1356.81 161 1343 161 L 1120 161 C 1106.19 161 1095 172.19 1095 186 Z "/></g><g ><text x="1114" y="214" style="fill: rgb(0,0,0); fill-opacity: 1.0; font-family: sans-serif; font-size: 48px;" >MilkBased</text></g><g style="fill: rgb(255,255,255); fill-opacity: 1.0; stroke: none" ><path d="M 904 343 L 904 370 C 904 383.81 915.19 395 929 395 L 1219 395 C 1232.81 395 1244 383.81 1244 370 L 1244 343 C 1244 329.19 1232.81 318 1219 318 L 929 318 C 915.19 318 904 329.19 904 343 Z "/></g><g style="stroke-width: 4.0;stroke: rgb(0,0,0);stroke-opacity: 1.0;stroke-linecap: square;; fill: none" ><path d="M 904 343 L 904 370 C 904 383.81 915.19 395 929 395 L 1219 395 C 1232.81 395 1244 383.81 1244 370 L 1244 343 C 1244 329.19 1232.81 318 1219 318 L 929 318 C 915.19 318 904 329.19 904 343 Z "/></g><g ><text x="924" y="371" style="fill: rgb(0,0,0); fill-opacity: 1.0; font-family: sans-serif; font-size: 48px;" >BuiltInDrinks</text></g><g style="fill: rgb(255,255,255); fill-opacity: 1.0; stroke: none" ><path d="M 701 500 L 701 527 C 701 540.81 712.19 552 726 552 L 832 552 C 845.81 552 857 540.81 857 527 L 857 500 C 857 486.19 845.81 475 832 475 L 726 475 C 712.19 475 701 486.19 701 500 Z "/></g><g style="stroke-width: 4.0;stroke: rgb(0,0,0);stroke-opacity: 1.0;stroke-linecap: square;; fill: none" ><path d="M 701 500 L 701 527 C 701 540.81 712.19 552 726 552 L 832 552 C 845.81 552 857 540.81 857 527 L 857 500 C 857 486.19 845.81 475 832 475 L 726 475 C 712.19 475 701 486.19 701 500 Z "/></g><g ><text x="721" y="528" style="fill: rgb(0,0,0); fill-opacity: 1.0; font-family: sans-serif; font-size: 48px;" >Latte</text></g><g style="fill: rgb(255,255,255); fill-opacity: 1.0; stroke: none" ><path d="M 887 500 L 887 527 C 887 540.81 898.19 552 912 552 L 1175 552 C 1188.81 552 1200 540.81 1200 527 L 1200 500 C 1200 486.19 1188.81 475 1175 475 L 912 475 C 898.19 475 887 486.19 887 500 Z "/></g><g style="stroke-width: 4.0;stroke: rgb(0,0,0);stroke-opacity: 1.0;stroke-linecap: square;; fill: none" ><path d="M 887 500 L 887 527 C 887 540.81 898.19 552 912 552 L 1175 552 C 1188.81 552 1200 540.81 1200 527 L 1200 500 C 1200 486.19 1188.81 475 1175 475 L 912 475 C 898.19 475 887 486.19 887 500 Z "/></g><g ><text x="906" y="528" style="fill: rgb(0,0,0); fill-opacity: 1.0; font-family: sans-serif; font-size: 48px;" >Cappuccino</text></g><g style="fill: rgb(255,255,255); fill-opacity: 1.0; stroke: none" ><path d="M 1230 500 L 1230 527 C 1230 540.81 1241.19 552 1255 552 L 1481 552 C 1494.81 552 1506 540.81 1506 527 L 1506 500 C 1506 486.19 1494.81 475 1481 475 L 1255 475 C 1241.19 475 1230 486.19 1230 500 Z "/></g><g style="stroke-width: 4.0;stroke: rgb(0,0,0);stroke-opacity: 1.0;stroke-linecap: square;; fill: none" ><path d="M 1230 500 L 1230 527 C 1230 540.81 1241.19 552 1255 552 L 1481 552 C 1494.81 552 1506 540.81 1506 527 L 1506 500 C 1506 486.19 1494.81 475 1481 475 L 1255 475 C 1241.19 475 1230 486.19 1230 500 Z "/></g><g ><text x="1250" y="528" style="fill: rgb(0,0,0); fill-opacity: 1.0; font-family: sans-serif; font-size: 48px;" >Macchiato</text></g><g style="fill: rgb(255,255,255); fill-opacity: 1.0; stroke: none" ><path d="M 1274 343 L 1274 370 C 1274 383.81 1285.19 395 1299 395 L 1479 395 C 1492.81 395 1504 383.81 1504 370 L 1504 343 C 1504 329.19 1492.81 318 1479 318 L 1299 318 C 1285.19 318 1274 329.19 1274 343 Z "/></g><g style="stroke-width: 4.0;stroke: rgb(0,0,0);stroke-opacity: 1.0;stroke-linecap: square;; fill: none" ><path d="M 1274 343 L 1274 370 C 1274 383.81 1285.19 395 1299 395 L 1479 395 C 1492.81 395 1504 383.81 1504 370 L 1504 343 C 1504 329.19 1492.81 318 1479 318 L 1299 318 C 1285.19 318 1274 329.19 1274 343 Z "/></g><g ><text x="1294" y="371" style="fill: rgb(0,0,0); fill-opacity: 1.0; font-family: sans-serif; font-size: 48px;" >Steamer</text></g></svg>
